<svg width="64" height="64" viewBox="0 0 64 64" fill="none" xmlns="http://www.w3.org/2000/svg">
<path d="M57.7774 26.4832C60.851 26.3351 63.5716 28.7263 63.8369 31.8115C64.9865 46.7367 51.367 63.4563 32.1744 63.9909C16.0006 64.3913 0.00423431 51.4048 0.00423431 31.7688C0.00423431 28.6742 2.55395 26.1655 5.63098 26.1655C8.70799 26.1655 11.2024 28.6742 11.2024 31.7688C11.2024 44.6849 21.5575 53.0439 31.9004 52.788C44.6328 52.4332 52.9101 41.3763 52.4796 32.3484C52.3319 29.2575 54.7041 26.6316 57.7774 26.4832Z" fill="url(#paint0_linear)"/>
<path d="M43.8591 32.2033C43.8591 29.0352 46.4359 26.4668 49.6144 26.4668H58.0017C61.1805 26.4668 63.8368 29.0352 63.8368 32.2033C63.8368 35.3717 61.1805 37.94 58.0017 37.94H49.6144C46.4359 37.94 43.8591 35.3717 43.8591 32.2033Z" fill="#00A672"/>
<path d="M26.2604 32.2117C26.2604 29.0388 28.8208 26.4668 31.9755 26.4668C35.1305 26.4668 37.6908 29.0388 37.6908 32.2117C37.6908 35.3845 35.1305 37.9568 31.9755 37.9568C28.8208 37.9568 26.2604 35.3845 26.2604 32.2117Z" fill="#00A672"/>
<path fill-rule="evenodd" clip-rule="evenodd" d="M37.5328 5.37083C37.6606 8.46275 35.2717 11.0733 32.1974 11.2017C18.9258 11.756 10.8236 22.2175 11.218 32.1508C11.3408 35.2428 8.99778 37.8496 5.92319 37.9731C2.84862 38.0966 0.144865 35.601 0.0221011 32.509C-0.620569 16.3217 12.8186 0.319186 31.735 0.00491668C34.8094 -0.123489 37.4052 2.27891 37.5328 5.37083Z" fill="#00A672"/>
<defs>
<linearGradient id="paint0_linear" x1="31.9545" y1="26.1655" x2="31.9545" y2="64.0001" gradientUnits="userSpaceOnUse">
<stop stop-color="#00583E"/>
<stop offset="1" stop-color="#00835C"/>
</linearGradient>
</defs>
</svg>
