<svg width="64" height="64" viewBox="0 0 64 64" fill="none" xmlns="http://www.w3.org/2000/svg">
<path d="M47.5006 60.0024C47.2633 60.1278 47.2766 60.1784 47.514 60.0584C47.5835 60.0286 47.6468 59.9861 47.7007 59.9331C47.7007 59.8904 47.6953 59.8958 47.5006 60.0024ZM47.9753 59.7517C47.8633 59.8397 47.8633 59.8451 47.9993 59.7757C48.074 59.7384 48.138 59.6957 48.138 59.6824C48.138 59.6317 48.106 59.6451 47.9753 59.7517ZM48.2873 59.5624C48.1753 59.6504 48.1753 59.6557 48.3113 59.5864C48.386 59.5491 48.45 59.5064 48.45 59.4931C48.45 59.4424 48.418 59.4557 48.2873 59.5624ZM48.5994 59.3757C48.4874 59.4637 48.4874 59.4691 48.6234 59.3997C48.698 59.3624 48.762 59.3197 48.762 59.3064C48.762 59.2557 48.73 59.269 48.5994 59.3757ZM49.0314 59.0957C48.8127 59.2344 48.7434 59.3277 48.938 59.221C49.0767 59.141 49.3007 58.9704 49.2634 58.965C49.1816 59.0002 49.1038 59.044 49.0314 59.0957ZM29.9026 0.00951566C29.7639 0.0228498 29.3266 0.065519 28.9319 0.0975209C19.8435 0.916236 11.3285 5.82053 5.93625 13.3596C2.95522 17.4976 1.01755 22.2943 0.288012 27.3418C0.0320013 29.0992 0 29.6193 0 32.0034C0 34.3876 0.0320013 34.9049 0.288012 36.665C2.02675 48.6818 10.5791 58.7784 22.1769 62.5199C24.2543 63.1893 26.4438 63.6453 28.9319 63.92C29.9026 64.0267 34.0921 64.0267 35.0628 63.92C39.359 63.4453 43.0018 62.3812 46.5913 60.5491C47.1406 60.2664 47.2473 60.1918 47.1726 60.1304C45.4193 57.8137 43.6823 55.4846 41.9617 53.1433L36.8442 46.2309L30.4333 36.7424C28.3017 33.5674 26.1495 30.4062 23.977 27.2591C23.953 27.2538 23.9263 31.4701 23.9157 36.617C23.897 45.6309 23.8917 45.9936 23.777 46.2069C23.6681 46.4562 23.4731 46.6579 23.2276 46.775C23.0276 46.8763 22.8516 46.895 21.9076 46.895H20.8249L20.5369 46.7136C20.3592 46.6016 20.2146 46.4442 20.1182 46.2576L19.9875 45.9749L20.0008 33.4328L20.0195 20.8854L20.2142 20.6427C20.345 20.4891 20.5021 20.3599 20.6782 20.2614C20.9342 20.136 21.0355 20.1227 22.1183 20.1227C23.3956 20.1227 23.6063 20.1734 23.9397 20.5361C26.5348 24.3983 29.1083 28.275 31.66 32.1661C35.8148 38.4651 41.4924 47.0657 44.2845 51.2899L49.3514 58.965L49.6074 58.797C52.0455 57.1753 54.2562 55.2354 56.181 53.0287C60.2131 48.4142 62.828 42.7342 63.712 36.6704C63.968 34.9129 64 34.3929 64 32.0088C64 29.6246 63.968 29.1072 63.712 27.3471C61.9732 15.3304 53.4209 5.23383 41.8231 1.49227C39.6557 0.802224 37.4236 0.334892 35.1615 0.0975209C34.5614 0.0361839 30.4253 -0.0331535 29.9079 0.0175161L29.9026 0.00951566ZM43.0018 19.3653C43.1509 19.4403 43.2836 19.5442 43.3922 19.6711C43.5007 19.7979 43.5828 19.9451 43.6338 20.104C43.6845 20.2667 43.6952 23.7443 43.6845 31.5821L43.6658 42.8307L41.6817 39.7906L39.6923 36.7504V28.5739C39.6923 23.2882 39.7163 20.3174 39.7537 20.1734C39.7989 20.0072 39.8769 19.8517 39.9832 19.7161C40.0894 19.5806 40.2218 19.4676 40.3723 19.384C40.6284 19.2533 40.7217 19.24 41.7057 19.24C42.6311 19.24 42.7938 19.2533 43.0018 19.3653Z" fill="white"/>
</svg>
