<svg width="87" height="64" viewBox="0 0 87 64" fill="none" xmlns="http://www.w3.org/2000/svg">
<path d="M26.475 61.8364C26.4105 61.7233 26.353 61.6064 26.3029 61.4863C25.9553 60.6897 25.8483 59.8103 25.9948 58.9547H5.43603L35.9888 5.6827L46.019 23.1528L48.9275 18.0536L40.1839 2.79198C39.9393 2.35208 38.4624 0 35.9163 0C34.7656 0 33.1165 0.493758 31.7756 2.82789L0.824122 56.7462C0.561361 57.2131 -0.716201 59.6639 0.5523 61.8364C1.13219 62.824 2.36445 64 5.08266 64H31.0054C28.3053 64 27.0549 62.8419 26.475 61.8364Z" fill="#00C58E"/>
<path d="M86.0761 56.7461L60.6427 12.3528C60.3799 11.886 58.9121 9.5249 56.357 9.5249C55.2062 9.5249 53.5572 10.0097 52.2162 12.3438L48.9272 18.0534L51.8538 23.1526L56.3841 15.2076L81.5458 58.9546H71.9776C72.1001 59.6778 72.0314 60.42 71.7783 61.1091C71.725 61.2613 71.6583 61.4085 71.579 61.549L71.4974 61.7106C70.2108 63.8832 67.4292 63.9999 66.8855 63.9999H81.8538C82.4065 63.9999 85.1791 63.8832 86.4658 61.7106C87.0366 60.7231 87.4443 59.0623 86.0761 56.7461Z" fill="#108775"/>
<path d="M71.4974 61.7109L71.5789 61.5493C71.6583 61.4087 71.725 61.2615 71.7783 61.1094C72.0314 60.4203 72.1001 59.678 71.9776 58.9548C71.8366 58.1748 71.5542 57.4266 71.144 56.7464L51.8719 23.1529L48.9271 18.0537L46.0005 23.1529L26.7374 56.7464C26.3634 57.4347 26.1121 58.1818 25.9944 58.9548C25.8394 59.8079 25.937 60.6871 26.2753 61.4865C26.3254 61.6065 26.3829 61.7235 26.4475 61.8366C27.0274 62.8241 28.2596 64.0001 30.9778 64.0001H66.8583C67.4291 64.0001 70.2108 63.8834 71.4974 61.7109ZM48.9271 28.2521L66.5412 58.9548H31.3221L48.9271 28.2521Z" fill="#2F495E"/>
</svg>
