<svg width="93" height="64" viewBox="0 0 93 64" fill="none" xmlns="http://www.w3.org/2000/svg">
<path d="M46.2034 15.9789L55.4188 0L64.6764 15.9789H46.2034Z" fill="#F75279"/>
<path d="M46.2034 15.9788L55.4188 31.9999L64.6764 15.9788H46.2034Z" fill="#F8688A"/>
<path d="M36.9458 31.9999L46.2034 15.9788L55.4188 31.9999H36.9458Z" fill="#F97D9A"/>
<path d="M18.4729 0L27.7305 15.9789L36.9458 0H18.4729Z" fill="#66AEED"/>
<path d="M9.2576 15.9789L18.4729 0L27.7305 15.9789H9.2576Z" fill="#55A5EB"/>
<path d="M9.2576 15.9788L18.4729 31.9999L27.7305 15.9788H9.2576Z" fill="#429BE9"/>
<path d="M0 31.9999L9.2576 15.9788L18.4729 31.9999H0Z" fill="#2C8FE7"/>
<path d="M36.9458 32L46.2034 48.0211L55.4188 32H36.9458Z" fill="#F97392"/>
<path d="M27.7305 48.0211L36.9458 32L46.2034 48.0211H27.7305Z" fill="#F8688A"/>
<path d="M27.7305 48.0212L36.9458 64.0001L46.2034 48.0212H27.7305Z" fill="#F75279"/>
<path d="M18.4729 64.0001L27.7305 48.0212L36.9458 64.0001H18.4729Z" fill="#F52757"/>
<path d="M0 32L9.2576 48.0211L18.4729 32H0Z" fill="#1E88E5"/>
<path d="M73.934 64.0001L64.6764 48.0212L55.4611 64.0001H73.934Z" fill="#66AEED"/>
<path d="M83.1493 48.0212L73.934 64.0001L64.6764 48.0212H83.1493Z" fill="#55A5EB"/>
<path d="M83.1493 48.0211L73.934 32L64.6764 48.0211H83.1493Z" fill="#429BE9"/>
<path d="M92.4069 32L83.1493 48.0211L73.934 32H92.4069Z" fill="#2C8FE7"/>
<path d="M92.4069 31.9999L83.1493 15.9788L73.934 31.9999H92.4069Z" fill="#1E88E5"/>
<path d="M27.7305 48.0211L18.4729 32L9.2576 48.0211H27.7305Z" fill="#2156A9"/>
<path d="M27.7305 48.0212L18.4729 64.0001L9.2576 48.0212H27.7305Z" fill="#0D47A1"/>
<path d="M55.4188 0L64.6764 15.9789L73.934 0H55.4188Z" fill="#F52757"/>
<path d="M83.1493 15.9789L73.934 0L64.6764 15.9789H83.1493Z" fill="#0D47A1"/>
<path d="M83.1493 15.9788L73.934 31.9999L64.6764 15.9788H83.1493Z" fill="#2156A9"/>
</svg>
