<svg width="70" height="64" viewBox="0 0 70 64" fill="none" xmlns="http://www.w3.org/2000/svg">
<path d="M70 32.0073C70 27.2465 64.1928 22.7347 55.2894 19.9368C57.3441 10.6203 56.4309 3.20806 52.4073 0.834973C51.4798 0.278324 50.3954 0.0146484 49.2112 0.0146484V3.2813C49.8675 3.2813 50.3954 3.41314 50.8378 3.66217C52.7782 4.80476 53.6201 9.15541 52.9637 14.7512C52.8068 16.1282 52.5499 17.5784 52.236 19.0579C49.4395 18.3548 46.3861 17.8128 43.1757 17.4612C41.2495 14.7512 39.2519 12.2902 37.2401 10.1369C41.8916 5.69833 46.2576 3.26665 49.2254 3.26665V0C45.3017 0 40.1651 2.87114 34.9715 7.85168C29.7778 2.90044 24.6413 0.0585949 20.7175 0.0585949V3.32525C23.671 3.32525 28.0514 5.74228 32.7028 10.1515C30.7053 12.3049 28.7077 14.7512 26.81 17.4612C23.5854 17.8128 20.532 18.3548 17.7354 19.0726C17.4073 17.6077 17.1647 16.1868 16.9935 14.8244C16.3229 9.22866 17.1504 4.878 19.0766 3.72076C19.5047 3.45708 20.0612 3.3399 20.7175 3.3399V0.0732433C19.519 0.0732433 18.4346 0.336919 17.4929 0.893568C13.4835 3.26665 12.5846 10.6642 14.6535 19.9515C5.77864 22.764 0 27.2612 0 32.0073C0 36.7681 5.80717 41.2799 14.7106 44.0778C12.6559 53.3944 13.5691 60.8066 17.5927 63.1797C18.5202 63.7363 19.6046 64 20.8031 64C24.7269 64 29.8634 61.1289 35.0571 56.1483C40.2507 61.0996 45.3873 63.9414 49.311 63.9414C50.5096 63.9414 51.594 63.6777 52.5357 63.1211C56.5451 60.748 57.4439 53.3504 55.3751 44.0632C64.2214 41.2653 70 36.7535 70 32.0073ZM51.4227 22.2367C50.8948 24.1263 50.2385 26.0746 49.4965 28.0229C48.9115 26.851 48.298 25.6791 47.6274 24.5072C46.9711 23.3353 46.2719 22.1927 45.5728 21.0794C47.5989 21.387 49.5536 21.7679 51.4227 22.2367ZM44.8879 37.8375C43.775 39.8151 42.6335 41.6901 41.4492 43.4333C39.3233 43.6237 37.1688 43.7263 35 43.7263C32.8455 43.7263 30.691 43.6237 28.5793 43.4479C27.395 41.7047 26.2393 39.8444 25.1264 37.8814C24.042 35.9625 23.0575 34.0142 22.1586 32.0513C23.0432 30.0883 24.042 28.1254 25.1121 26.2065C26.225 24.2289 27.3665 22.3539 28.5508 20.6107C30.6767 20.4202 32.8312 20.3177 35 20.3177C37.1545 20.3177 39.309 20.4202 41.4207 20.596C42.605 22.3392 43.7607 24.1996 44.8736 26.1625C45.958 28.0815 46.9425 30.0298 47.8414 31.9927C46.9425 33.9556 45.958 35.9185 44.8879 37.8375ZM49.4965 35.9332C50.267 37.8961 50.9234 39.859 51.4656 41.7633C49.5964 42.2321 47.6274 42.6276 45.587 42.9352C46.2862 41.8073 46.9853 40.65 47.6417 39.4635C48.298 38.2916 48.9115 37.1051 49.4965 35.9332ZM35.0285 51.5633C33.7016 50.157 32.3746 48.5896 31.062 46.8757C32.3461 46.9343 33.6588 46.9783 34.9857 46.9783C36.3269 46.9783 37.6539 46.949 38.9523 46.8757C37.6682 48.5896 36.3412 50.157 35.0285 51.5633ZM24.413 42.9352C22.3869 42.6276 20.4321 42.2467 18.563 41.778C19.0909 39.8883 19.7472 37.94 20.4892 35.9918C21.0742 37.1637 21.6877 38.3355 22.3583 39.5074C23.0289 40.6793 23.7138 41.8219 24.413 42.9352ZM34.9572 12.4514C36.2841 13.8576 37.6111 15.425 38.9238 17.1389C37.6396 17.0803 36.3269 17.0364 35 17.0364C33.6588 17.0364 32.3318 17.0657 31.0334 17.1389C32.3176 15.425 33.6445 13.8576 34.9572 12.4514ZM24.3987 21.0794C23.6996 22.2074 23.0004 23.3646 22.3441 24.5512C21.6877 25.723 21.0742 26.8949 20.4892 28.0668C19.7187 26.1039 19.0624 24.141 18.5202 22.2367C20.3893 21.7826 22.3583 21.387 24.3987 21.0794ZM11.4859 39.4195C6.43498 37.2076 3.16755 34.3072 3.16755 32.0073C3.16755 29.7075 6.43498 26.7924 11.4859 24.5951C12.713 24.0531 14.0542 23.5697 15.4382 23.1156C16.2515 25.9867 17.3216 28.9751 18.6486 32.0366C17.3359 35.0835 16.2801 38.0572 15.481 40.9137C14.0685 40.4596 12.7273 39.9615 11.4859 39.4195ZM19.1623 60.3525C17.2218 59.2099 16.3799 54.8592 17.0363 49.2634C17.1932 47.8865 17.4501 46.4363 17.764 44.9567C20.5605 45.6599 23.6139 46.2019 26.8243 46.5534C28.7505 49.2634 30.7481 51.7244 32.7599 53.8778C28.1084 58.3163 23.7424 60.748 20.7746 60.748C20.1325 60.7333 19.5903 60.6015 19.1623 60.3525ZM53.0065 49.1902C53.6771 54.786 52.8496 59.1366 50.9234 60.2939C50.4953 60.5576 49.9388 60.6748 49.2825 60.6748C46.329 60.6748 41.9486 58.2577 37.2972 53.8485C39.2947 51.6951 41.2923 49.2488 43.19 46.5388C46.4146 46.1872 49.468 45.6452 52.2646 44.9274C52.5927 46.407 52.8496 47.8279 53.0065 49.1902ZM58.4998 39.4195C57.2727 39.9615 55.9315 40.445 54.5475 40.8991C53.7342 38.0279 52.6641 35.0396 51.3371 31.978C52.6498 28.9311 53.7057 25.9574 54.5047 23.1009C55.9172 23.555 57.2585 24.0531 58.5141 24.5951C63.565 26.807 66.8325 29.7075 66.8325 32.0073C66.8182 34.3072 63.5508 37.2222 58.4998 39.4195Z" fill="#61DAFB"/>
<path d="M34.9857 38.7019C38.587 38.7019 41.5063 35.7047 41.5063 32.0074C41.5063 28.3102 38.587 25.313 34.9857 25.313C31.3845 25.313 28.4651 28.3102 28.4651 32.0074C28.4651 35.7047 31.3845 38.7019 34.9857 38.7019Z" fill="#61DAFB"/>
</svg>
