<svg width="68" height="64" viewBox="0 0 68 64" fill="none" xmlns="http://www.w3.org/2000/svg">
<path d="M46.7128 44.6969C49.2007 44.4395 51.0881 42.2948 51.0024 39.721C50.9166 37.1473 48.7718 35.0883 46.1981 35.0883H46.0265C43.367 35.1741 41.308 37.4047 41.3938 40.0642C41.4796 41.3511 41.9943 42.4664 42.7664 43.2385C39.8495 48.9865 35.3884 53.1902 28.6967 56.7077C24.1498 59.1098 19.4313 59.9677 14.7128 59.3672C10.8522 58.8524 7.84954 57.1366 5.96214 54.3055C3.21684 50.1017 2.95946 45.5548 5.27582 41.0079C6.90584 37.7478 9.47957 35.3457 11.1096 34.1446C10.7664 33.0293 10.2517 31.1419 9.99431 29.7693C-2.44536 38.7773 -1.1585 50.9597 2.6163 56.7077C5.4474 60.9972 11.1954 63.6567 17.5439 63.6567C19.2597 63.6567 20.9755 63.4851 22.6914 63.0562C33.6726 60.9114 41.9943 54.3913 46.7128 44.6969Z" fill="#764ABC"/>
<path d="M61.812 34.0589C55.2919 26.4235 45.6834 22.2197 34.7021 22.2197H33.3295C32.5574 20.6755 30.9273 19.646 29.1257 19.646H28.9541C26.2946 19.7318 24.2356 21.9623 24.3214 24.6219C24.4072 27.1956 26.552 29.2546 29.1257 29.2546H29.2973C31.1847 29.1688 32.8147 27.9677 33.5011 26.3377H35.0453C41.5654 26.3377 47.7423 28.2251 53.3188 31.9141C57.6083 34.7452 60.6968 38.4342 62.4126 42.8953C63.871 46.4985 63.7852 50.016 62.241 53.0186C59.8389 57.5656 55.8067 60.0535 50.4876 60.0535C47.056 60.0535 43.796 59.024 42.0801 58.2519C41.1364 59.1098 39.4206 60.4825 38.2196 61.3404C41.9086 63.0562 45.6834 63.9999 49.2866 63.9999C57.5225 63.9999 63.6137 59.453 65.93 54.906C68.4179 49.9302 68.2464 41.3511 61.812 34.0589Z" fill="#764ABC"/>
<path d="M18.2302 46.1555C18.316 48.7292 20.4608 50.7882 23.0345 50.7882H23.2061C25.8656 50.7024 27.9246 48.4719 27.8388 45.8123C27.753 43.2386 25.6082 41.1796 23.0345 41.1796H22.8629C22.6913 41.1796 22.434 41.1796 22.2624 41.2654C18.745 35.4317 17.2865 29.0831 17.8013 22.2198C18.1444 17.0724 19.8602 12.6113 22.8629 8.92226C25.3509 5.74799 30.1552 4.20376 33.4152 4.11796C42.5091 3.94638 46.3696 15.2708 46.627 19.8177C47.7423 20.0751 49.6297 20.6756 50.9166 21.1046C49.8871 7.20644 41.308 0 33.072 0C25.3509 0 18.2302 5.57641 15.3991 13.8123C11.4527 24.7936 14.0265 35.3459 18.8307 43.6676C18.4018 44.2681 18.1444 45.2118 18.2302 46.1555Z" fill="#764ABC"/>
</svg>
