<svg width="54" height="64" viewBox="0 0 54 64" fill="none" xmlns="http://www.w3.org/2000/svg">
<path d="M49.9565 8.43508C47.1293 4.33799 42.8393 1.47499 37.9654 0.432655C33.0915 -0.609677 28.0027 0.24758 23.7417 2.82878L8.76177 12.3328C6.73816 13.5977 5.004 15.2735 3.67208 17.2513C2.34017 19.2291 1.44032 21.4646 1.03107 23.8123C0.305017 27.757 0.936627 31.8308 2.82331 35.372C1.5309 37.3039 0.664689 39.4879 0.282073 41.7792C-0.142788 44.1659 -0.0872237 46.6132 0.445525 48.9783C0.978273 51.3434 1.97754 53.579 3.38505 55.5546C6.21671 59.645 10.5022 62.5063 15.3712 63.5575C20.2401 64.6087 25.3274 63.7709 29.5999 61.2143L44.5798 51.7103C46.5984 50.4427 48.3274 48.7656 49.6546 46.788C50.9818 44.8103 51.8776 42.5763 52.2837 40.2308C53.0036 36.2947 52.3721 32.2314 50.4915 28.6978C52.435 25.6514 53.4223 22.0951 53.327 18.4848C53.2317 14.8746 52.058 11.3751 49.9565 8.43508ZM22.2437 56.3822C19.8919 56.9925 17.409 56.8665 15.1314 56.0213C12.8538 55.176 10.8916 53.6524 9.51076 51.6569C7.77202 49.2542 7.13003 46.2909 7.63827 43.3543L7.93252 41.9394L8.20002 41.0584L9.00251 41.5923C10.768 42.9271 12.7475 43.8882 14.8607 44.5289L15.3957 44.7158L15.3422 45.2497C15.2887 45.9972 15.5027 46.8248 15.9307 47.4656C16.8135 48.7203 18.3382 49.3343 19.8094 48.9339C20.1304 48.8271 20.4514 48.7203 20.7189 48.5601L35.6453 39.0561C36.3943 38.5756 36.8758 37.8548 37.0631 37.0005C37.2236 36.1195 37.0096 35.2118 36.5281 34.491C35.6453 33.2629 34.1206 32.7023 32.6494 33.0761C32.3284 33.1829 31.9806 33.3163 31.7131 33.4765L26.0689 37.0539C23.4927 38.5812 20.4325 39.0779 17.5041 38.4438C14.5758 37.8098 11.9969 36.0922 10.2865 33.6367C9.43474 32.4477 8.83022 31.1004 8.50862 29.6744C8.18703 28.2484 8.15486 26.7726 8.41402 25.334C8.66918 23.9096 9.22284 22.5551 10.0387 21.3589C10.8547 20.1628 11.9144 19.1521 13.1487 18.3929L28.0484 8.88892C28.9846 8.30159 30.0011 7.87445 31.0979 7.55409C35.9128 6.29935 40.9953 8.19481 43.8308 12.2527C44.8231 13.6432 45.4776 15.2453 45.7422 16.9319C46.0068 18.6185 45.8745 20.3435 45.3555 21.9703L45.088 22.8513L44.3123 22.3173C42.528 21.0185 40.539 20.026 38.4273 19.3807L37.8923 19.2205L37.9458 18.6866C37.9993 17.9124 37.7853 17.0848 37.3573 16.4441C36.4746 15.1893 34.9498 14.6554 33.4786 15.0291C33.1576 15.1359 32.8366 15.2427 32.5691 15.4029L17.616 24.987C16.867 25.4942 16.3855 26.1883 16.225 27.0693C16.0645 27.9236 16.2785 28.858 16.76 29.5521C17.616 30.8069 19.1674 31.3408 20.6119 30.967C20.9597 30.8602 21.2807 30.7535 21.5482 30.5933L27.2459 26.9625C28.1821 26.3485 29.2254 25.8947 30.2954 25.601C35.1371 24.3463 40.1928 26.2417 43.0283 30.3263C44.767 32.729 45.4358 35.6923 44.9543 38.6023C44.7053 40.0222 44.1599 41.3739 43.3534 42.5697C42.5469 43.7656 41.4974 44.7787 40.273 45.5434L25.3467 55.0207C24.3757 55.6067 23.3327 56.0643 22.2437 56.3822Z" fill="#159497"/>
</svg>
