<svg width="57" height="58" viewBox="0 0 57 58" fill="none" xmlns="http://www.w3.org/2000/svg">
<path d="M2.83593 42.3712L5.18536 43.5833L31.359 3.07848L29.0096 1.86646L2.83593 42.3712Z" fill="#E535AB"/>
<path d="M54.6452 39.1353H2.29785V41.5593H54.6452V39.1353Z" fill="#E535AB"/>
<path d="M3.33363 40.497L29.5171 54.0046L30.8736 51.9054L4.69011 38.3977L3.33363 40.497Z" fill="#E535AB"/>
<path d="M26.0792 5.29331L52.2627 18.8008L53.6192 16.7016L27.4357 3.19409L26.0792 5.29331Z" fill="#E535AB"/>
<path d="M3.34093 16.692L4.69742 18.7913L30.8809 5.28379L29.5244 3.18457L3.34093 16.692Z" fill="#E535AB"/>
<path d="M25.6063 3.07944L51.78 43.584L54.1294 42.372L27.9558 1.86743L25.6063 3.07944Z" fill="#E535AB"/>
<path d="M7.08643 15.085H4.37341V42.0996H7.08643V15.085Z" fill="#E535AB"/>
<path d="M52.5859 15.085H49.8729V42.0996H52.5859V15.085Z" fill="#E535AB"/>
<path d="M27.8704 51.1446L29.0552 52.9783L51.8278 41.2306L50.6429 39.397L27.8704 51.1446Z" fill="#E535AB"/>
<path d="M56.1814 42.888C54.6125 45.3265 51.115 46.1588 48.3857 44.757C45.6564 43.3553 44.7248 40.2305 46.2938 37.7919C47.8627 35.3534 51.3602 34.5211 54.0895 35.9229C56.8352 37.3393 57.7667 40.4495 56.1814 42.888Z" fill="#E535AB"/>
<path d="M10.6492 19.3926C9.08028 21.8312 5.58284 22.6635 2.85353 21.2617C0.124219 19.8599 -0.807342 16.7351 0.761603 14.2966C2.33055 11.8581 5.82799 11.0257 8.5573 12.4275C11.2866 13.8439 12.2182 16.9541 10.6492 19.3926Z" fill="#E535AB"/>
<path d="M0.77796 42.888C-0.790985 40.4495 0.140576 37.3393 2.86989 35.9229C5.5992 34.5211 9.08029 35.3534 10.6656 37.7919C12.2345 40.2305 11.303 43.3407 8.57366 44.757C5.828 46.1588 2.34691 45.3265 0.77796 42.888Z" fill="#E535AB"/>
<path d="M46.3101 19.3926C44.7412 16.9541 45.6727 13.8439 48.4021 12.4275C51.1314 11.0257 54.6125 11.8581 56.1977 14.2966C57.7667 16.7351 56.8351 19.8453 54.1058 21.2617C51.3765 22.6635 47.8791 21.8312 46.3101 19.3926Z" fill="#E535AB"/>
<path d="M28.4797 57.1841C25.3254 57.1841 22.7759 54.9061 22.7759 52.0878C22.7759 49.2695 25.3254 46.9915 28.4797 46.9915C31.6339 46.9915 34.1835 49.2695 34.1835 52.0878C34.1835 54.8915 31.6339 57.1841 28.4797 57.1841Z" fill="#E535AB"/>
<path d="M28.4797 10.1929C25.3254 10.1929 22.7759 7.91481 22.7759 5.09644C22.7759 2.27806 25.3254 0 28.4797 0C31.6339 0 34.1835 2.27806 34.1835 5.09644C34.1835 7.91481 31.6339 10.1929 28.4797 10.1929Z" fill="#E535AB"/>
</svg>
