<svg width="29" height="64" viewBox="0 0 29 64" fill="none" xmlns="http://www.w3.org/2000/svg">
<path fill-rule="evenodd" clip-rule="evenodd" d="M15.7421 64.0001L14.0432 63.4178C14.0432 63.4178 14.2507 54.7325 11.142 54.1092C9.07036 51.6986 11.4744 -48.1242 18.9338 53.7764C18.9338 53.7764 16.3641 55.0644 15.9083 57.2675C15.4107 59.4287 15.7421 64.0001 15.7421 64.0001Z" fill="#A6A385"/>
<path fill-rule="evenodd" clip-rule="evenodd" d="M16.6542 55.6052C16.6542 55.6052 31.5327 45.7972 28.0509 25.3917C24.6944 10.5561 16.7786 5.69379 15.9083 3.82352C14.9553 2.49366 14.0432 0.166748 14.0432 0.166748L14.6652 41.4334C14.6652 41.4752 13.3803 54.0673 16.6547 55.6056" fill="#499D4A"/>
<path fill-rule="evenodd" clip-rule="evenodd" d="M13.1733 56.145C13.1733 56.145 -0.79353 46.5865 0.0354983 29.7559C0.822761 12.9248 10.6862 4.65473 12.5926 3.1587C13.8362 1.82884 13.8775 1.32986 13.9606 0C14.8309 1.87027 14.6652 27.9689 14.7891 31.0439C15.1619 42.8878 14.1263 53.9014 13.1733 56.145Z" fill="white"/>
<path fill-rule="evenodd" clip-rule="evenodd" d="M13.1733 56.145C13.1733 56.145 -0.79353 46.5865 0.0354983 29.7559C0.822761 12.9248 10.6862 4.65473 12.5926 3.1587C13.8362 1.82884 13.8775 1.32986 13.9606 0C14.8309 1.87027 14.6652 27.9689 14.7891 31.0439C15.1619 42.8878 14.1263 53.9014 13.1733 56.145Z" fill="#58AA50"/>
</svg>
