<svg width="64" height="64" viewBox="0 0 64 64" fill="none" xmlns="http://www.w3.org/2000/svg">
<path d="M0 0H64V64H0V0ZM58.7573 48.736C58.2907 45.816 56.3893 43.3627 50.7493 41.0747C48.7867 40.1547 46.6053 39.5147 45.9573 38.0347C45.7147 37.1547 45.6773 36.6747 45.8347 36.1547C46.2347 34.432 48.2747 33.9147 49.8747 34.3947C50.9147 34.7147 51.8747 35.5147 52.4773 36.7947C55.2347 34.992 55.2347 34.992 57.1573 33.7947C56.4373 32.6747 56.08 32.192 55.5947 31.7147C53.9147 29.8347 51.6773 28.8747 48.0373 28.9573L46.1573 29.1947C44.3547 29.6347 42.6373 30.5947 41.5973 31.8747C38.5573 35.3173 39.4347 41.3173 43.1147 43.7973C46.7547 46.5173 52.0773 47.1147 52.7573 49.6773C53.3973 52.7973 50.4373 53.7973 47.5147 53.4373C45.352 52.9573 44.1547 51.8747 42.8347 49.8747L37.9547 52.6773C38.5147 53.9573 39.1547 54.5147 40.1147 55.6347C44.7547 60.3173 56.3547 60.0773 58.4373 52.9573C58.5147 52.7173 59.0773 51.0773 58.6347 48.5573L58.7573 48.736ZM34.8027 29.416H28.808C28.808 34.584 28.784 39.72 28.784 44.896C28.784 48.1813 28.952 51.1973 28.416 52.1253C27.536 53.9627 25.2693 53.728 24.24 53.4053C23.184 52.8827 22.648 52.1627 22.0267 51.1253C21.8587 50.8453 21.7333 50.6027 21.688 50.6027L16.8213 53.6027C17.6347 55.2827 18.8213 56.728 20.352 57.648C22.632 59.008 25.696 59.448 28.904 58.728C30.992 58.1253 32.792 56.8853 33.7333 54.9653C35.0933 52.4853 34.8053 49.4453 34.792 46.0427C34.824 40.5653 34.792 35.0853 34.792 29.5653L34.8027 29.416Z" fill="#F0DB4F"/>
</svg>
