<svg width="65" height="64" viewBox="0 0 65 64" fill="none" xmlns="http://www.w3.org/2000/svg">
<path d="M31.9356 0C15.6034 1.16527e-06 16.6232 7.08263 16.6232 7.08263L16.6414 14.4202H32.2269V16.6232H10.451C10.451 16.6232 0 15.438 0 31.9174C-1.16527e-06 48.3967 9.12184 47.8123 9.12184 47.8123H14.5658V40.1653C14.5658 40.1653 14.2724 31.0434 23.542 31.0434C32.8116 31.0434 39 31.0434 39 31.0434C39 31.0434 47.6849 31.1838 47.6849 22.6499C47.6849 14.1159 47.6849 8.53921 47.6849 8.53921C47.6849 8.53921 49.0035 0 31.9356 0ZM23.3417 4.93417C24.8924 4.93417 26.1456 6.18746 26.1456 7.73809C26.1456 9.28873 24.8924 10.542 23.3417 10.542C21.7911 10.542 20.5378 9.28873 20.5378 7.73809C20.5378 6.18746 21.7911 4.93417 23.3417 4.93417Z" fill="url(#paint0_linear)"/>
<path d="M32.3994 63.9999C48.7316 63.9999 47.7117 56.9173 47.7117 56.9173L47.6935 49.5798H32.1081V47.3767H53.884C53.884 47.3767 64.3349 48.5619 64.3349 32.0826C64.3349 15.6032 55.2131 16.1876 55.2131 16.1876H49.7691V23.8347C49.7691 23.8347 50.0626 32.9565 40.7929 32.9565C31.5233 32.9565 25.335 32.9565 25.335 32.9565C25.335 32.9565 16.6501 32.8161 16.6501 41.3501C16.6501 49.884 16.6501 55.4607 16.6501 55.4607C16.6501 55.4607 15.3315 63.9999 32.3994 63.9999ZM40.9932 59.0658C39.4426 59.0658 38.1893 57.8125 38.1893 56.2618C38.1893 54.7112 39.4426 53.4579 40.9932 53.4579C42.5438 53.4579 43.7971 54.7112 43.7971 56.2618C43.7971 57.8125 42.5438 59.0658 40.9932 59.0658Z" fill="url(#paint1_linear)"/>
<defs>
<linearGradient id="paint0_linear" x1="6.18271" y1="5.59416" x2="37.9945" y2="37.5123" gradientUnits="userSpaceOnUse">
<stop stop-color="#387EB8"/>
<stop offset="1" stop-color="#366994"/>
</linearGradient>
<linearGradient id="paint1_linear" x1="25.7519" y1="25.8991" x2="59.9179" y2="58.6318" gradientUnits="userSpaceOnUse">
<stop stop-color="#FFE052"/>
<stop offset="1" stop-color="#FFC331"/>
</linearGradient>
</defs>
</svg>
