<svg width="68" height="68" viewBox="0 0 68 68" fill="none" xmlns="http://www.w3.org/2000/svg">
<path d="M34 4.19434C17.5681 4.19434 4.19431 17.5744 4.19431 34C4.19431 50.4257 17.5744 63.8058 34 63.8058C50.4256 63.8058 63.8057 50.4257 63.8057 34C63.8057 17.5744 50.4256 4.19434 34 4.19434ZM33.9559 6.84261C34.4655 6.85581 34.9498 7.06823 35.3056 7.43456C35.6613 7.8009 35.8603 8.29216 35.8601 8.8036C35.8601 9.32368 35.6535 9.82247 35.2858 10.1902C34.918 10.558 34.4192 10.7646 33.8991 10.7646C33.379 10.7646 32.8803 10.558 32.5125 10.1902C32.1447 9.82247 31.9381 9.32368 31.9381 8.8036C31.938 8.54123 31.9906 8.28151 32.0927 8.03982C32.1947 7.79812 32.3443 7.57937 32.5324 7.39652C32.7206 7.21366 32.9435 7.07042 33.188 6.97527C33.4325 6.88013 33.6936 6.83502 33.9559 6.84261ZM38.4453 10.071C41.8879 10.7158 45.1488 12.1022 48.0016 14.134C50.8544 16.1659 53.2307 18.7943 54.9655 21.8369L52.6514 27.0578C52.2542 27.9595 52.6641 29.0188 53.5594 29.4223L58.0111 31.3959C58.1491 32.7874 58.166 34.1883 58.0615 35.5827H55.5835C55.3376 35.5827 55.2367 35.7466 55.2367 35.9863V37.1212C55.2367 39.7947 53.7297 40.3811 52.4055 40.5262C51.1445 40.6712 49.751 39.9965 49.5744 39.2272C48.8304 35.0467 47.5945 34.1577 45.6398 32.6129C48.0674 31.0743 50.5896 28.7981 50.5896 25.7589C50.5896 22.4737 48.3385 20.4056 46.8063 19.3904C44.6499 17.9717 42.2664 17.6879 41.6233 17.6879H16.0233C19.5631 13.7334 24.308 11.0563 29.5232 10.071L32.5435 13.2363C33.2245 13.9488 34.3531 13.9803 35.0656 13.2931L38.4453 10.071ZM10.5754 24.5861C11.0856 24.6008 11.5699 24.8139 11.9255 25.1801C12.281 25.5463 12.4798 26.0366 12.4796 26.547C12.4796 27.0671 12.273 27.5659 11.9053 27.9337C11.5375 28.3014 11.0387 28.508 10.5186 28.508C9.99856 28.508 9.49977 28.3014 9.13201 27.9337C8.76426 27.5659 8.55766 27.0671 8.55766 26.547C8.55755 26.2847 8.61009 26.025 8.71216 25.7833C8.81424 25.5416 8.96378 25.3228 9.15193 25.14C9.34008 24.9571 9.56301 24.8139 9.80751 24.7187C10.052 24.6236 10.3131 24.5785 10.5754 24.5861ZM57.3301 24.6743C57.8403 24.6891 58.3246 24.9022 58.6802 25.2684C59.0357 25.6345 59.2345 26.1249 59.2343 26.6353C59.2343 27.1554 59.0277 27.6542 58.6599 28.0219C58.2922 28.3897 57.7934 28.5963 57.2733 28.5963C56.7532 28.5963 56.2544 28.3897 55.8867 28.0219C55.5189 27.6542 55.3123 27.1554 55.3123 26.6353C55.3122 26.373 55.3648 26.1132 55.4668 25.8715C55.5689 25.6298 55.7185 25.4111 55.9066 25.2282C56.0948 25.0454 56.3177 24.9021 56.5622 24.807C56.8067 24.7119 57.0678 24.6667 57.3301 24.6743ZM14.2704 24.9896H17.6879V40.4H10.7898C9.93784 37.4084 9.67234 34.2803 10.0079 31.1878L14.2325 29.3088C15.1342 28.9053 15.5441 27.8523 15.1405 26.9506L14.2704 24.9896ZM28.5332 25.1535H36.6735C37.096 25.1535 39.6434 25.6391 39.6434 27.5496C39.6434 29.1323 37.6887 29.6998 36.0808 29.6998H28.5269L28.5332 25.1535ZM28.5332 36.2259H34.7693C35.3368 36.2259 37.8148 36.3898 38.603 39.5551C38.8489 40.5262 39.3975 43.6915 39.7695 44.7066C40.1415 45.8416 41.6485 48.1116 43.2564 48.1116H53.4333C52.7513 49.025 52.0054 49.8889 51.2012 50.6968L47.0585 49.8077C46.0938 49.5997 45.1417 50.2176 44.9336 51.1823L43.95 55.7727C40.7869 57.2055 37.3518 57.9388 33.8793 57.9225C30.4069 57.9062 26.9789 57.1406 23.8294 55.6781L22.8457 51.0877C22.6377 50.123 21.6918 49.5051 20.7271 49.7132L16.6727 50.5833C15.9204 49.8072 15.221 48.9814 14.5793 48.1116H34.2964C34.5171 48.1116 34.6684 48.0737 34.6684 47.8657V40.8919C34.6684 40.6901 34.5171 40.646 34.2964 40.646H28.5269L28.5332 36.2259ZM19.4345 52.1975C19.9447 52.2123 20.429 52.4254 20.7846 52.7915C21.1402 53.1577 21.339 53.6481 21.3387 54.1585C21.3387 54.6786 21.1321 55.1773 20.7644 55.5451C20.3966 55.9129 19.8978 56.1195 19.3778 56.1195C18.8577 56.1195 18.3589 55.9129 17.9911 55.5451C17.6234 55.1773 17.4168 54.6786 17.4168 54.1585C17.4167 53.8961 17.4692 53.6364 17.5713 53.3947C17.6734 53.153 17.8229 52.9342 18.011 52.7514C18.1992 52.5685 18.4221 52.4253 18.6666 52.3302C18.9111 52.235 19.1722 52.1899 19.4345 52.1975ZM48.471 52.2858C48.9811 52.3005 49.4655 52.5136 49.821 52.8798C50.1766 53.246 50.3754 53.7363 50.3752 54.2467C50.3752 54.7668 50.1686 55.2656 49.8008 55.6334C49.4331 56.0011 48.9343 56.2077 48.4142 56.2077C47.8941 56.2077 47.3953 56.0011 47.0276 55.6334C46.6598 55.2656 46.4532 54.7668 46.4532 54.2467C46.4531 53.9844 46.5057 53.7247 46.6077 53.483C46.7098 53.2413 46.8594 53.0225 47.0475 52.8397C47.2356 52.6568 47.4586 52.5136 47.7031 52.4184C47.9476 52.3233 48.2087 52.2782 48.471 52.2858Z" fill="white"/>
<path fill-rule="evenodd" clip-rule="evenodd" d="M62.1411 34C62.1411 41.4635 59.1762 48.6213 53.8988 53.8988C48.6213 59.1762 41.4635 62.1411 34 62.1411C26.5365 62.1411 19.3787 59.1762 14.1012 53.8988C8.82377 48.6213 5.85892 41.4635 5.85892 34C5.85892 26.5365 8.82377 19.3787 14.1012 14.1012C19.3787 8.82377 26.5365 5.85892 34 5.85892C41.4635 5.85892 48.6213 8.82377 53.8988 14.1012C59.1762 19.3787 62.1411 26.5365 62.1411 34ZM61.6114 31.2824L66 34L61.6114 36.7176L65.3821 40.2424L60.5521 42.052L63.5661 46.2451L58.465 47.0774L60.6089 51.7813L55.4447 51.5984L56.6301 56.6301L51.5984 55.4447L51.7813 60.6089L47.0774 58.465L46.2451 63.5661L42.052 60.5521L40.2424 65.3821L36.7176 61.6114L34 66L31.2824 61.6114L27.7576 65.3821L25.948 60.5521L21.7549 63.5661L20.9226 58.465L16.2187 60.6089L16.4016 55.4447L11.3699 56.6301L12.5553 51.5984L7.39113 51.7813L9.53498 47.0774L4.43389 46.2451L7.44788 42.052L2.61793 40.2424L6.38857 36.7176L2 34L6.38857 31.2824L2.61793 27.7576L7.44788 25.948L4.43389 21.7549L9.53498 20.9226L7.39113 16.2187L12.5553 16.4016L11.3699 11.3699L16.4016 12.5553L16.2187 7.39113L20.9226 9.53498L21.7549 4.43389L25.948 7.44788L27.7576 2.61793L31.2824 6.38857L34 2L36.7176 6.38857L40.2424 2.61793L42.052 7.44788L46.2451 4.43389L47.0774 9.53498L51.7813 7.39113L51.5984 12.5553L56.6301 11.3699L55.4447 16.4016L60.6089 16.2187L58.465 20.9226L63.5661 21.7549L60.5521 25.948L65.3821 27.7576L61.6114 31.2824Z" fill="white" stroke="white" stroke-width="3" stroke-linecap="round" stroke-linejoin="round"/>
</svg>
