<svg width="64" height="64" viewBox="0 0 64 64" fill="none" xmlns="http://www.w3.org/2000/svg">
<path fill-rule="evenodd" clip-rule="evenodd" d="M32 0C49.6729 0 64 14.3302 64 32C64 49.6698 49.6698 64 32 64C14.3302 64 0 49.6713 0 32C0 14.3287 14.3302 0 32 0Z" fill="#CC6699"/>
<path d="M52.0717 13.6963C50.6231 8.01246 41.1994 6.14486 32.2804 9.31308C26.972 11.1994 21.2212 14.1589 17.095 18.0234C12.1823 22.6184 11.3988 26.6168 11.7228 28.2882C12.8614 34.1838 20.9408 38.0389 24.2617 40.905V40.9221C23.2819 41.4034 16.1153 45.0311 14.4377 48.7399C12.6667 52.648 14.7196 55.4517 16.0779 55.8302C20.2835 57.0016 24.6044 54.8956 26.9252 51.433C29.1651 48.0919 28.9782 43.7788 28.0047 41.6324C29.3474 41.2788 30.9128 41.1199 32.9019 41.352C38.5094 42.0078 39.6168 45.5125 39.4066 46.9797C39.1963 48.447 38.0187 49.2539 37.6246 49.4969C37.2305 49.7399 37.1106 49.8255 37.1433 50.0062C37.1916 50.2695 37.3738 50.2601 37.7087 50.2025C38.176 50.1246 40.6558 49.0093 40.7633 46.3084C40.8988 42.8707 37.6044 39.0249 31.771 39.1262C29.3692 39.1682 27.8583 39.3956 26.7664 39.8022C26.6854 39.7103 26.6106 39.6184 26.5187 39.528C22.9128 35.6807 16.2383 32.9595 16.5281 27.7866C16.6309 25.9065 17.2851 20.9548 29.338 14.9486C39.2119 10.028 47.1168 11.3832 48.4829 14.3832C50.4346 18.6698 44.2586 26.6371 33.9969 27.7866C30.0904 28.2243 28.0327 26.7103 27.5218 26.1464C26.9829 25.553 26.8988 25.5234 26.7009 25.6371C26.3738 25.8193 26.581 26.3427 26.7009 26.6558C27.0125 27.4533 28.2586 28.866 30.405 29.5685C32.2897 30.1916 36.8754 30.5265 42.4237 28.3816C48.6449 25.9688 53.4969 19.2835 52.0717 13.6963ZM25.6402 42.6589C26.1075 44.3816 26.0545 45.9875 25.5732 47.4408C25.5203 47.6028 25.4616 47.7627 25.3972 47.9206C25.3328 48.0784 25.2638 48.2342 25.19 48.3878C24.8055 49.1744 24.3074 49.9002 23.7119 50.542C21.852 52.567 19.2555 53.338 18.1418 52.6916C16.9393 51.9938 17.5421 49.134 19.6994 46.8567C22.0156 44.4034 25.352 42.8349 25.352 42.8349V42.8255L25.6402 42.6589Z" fill="white"/>
</svg>
