<svg width="64" height="64" viewBox="0 0 64 64" fill="none" xmlns="http://www.w3.org/2000/svg">
<path d="M0 32V64H32H64V32V-9.53674e-07H32H0V32ZM51.5759 29.4502C53.2013 29.8565 54.4406 30.5778 55.5784 31.7562C56.1676 32.386 57.0413 33.534 57.1124 33.8083C57.1327 33.8895 54.3492 35.7587 52.6629 36.8051C52.6019 36.8457 52.3581 36.5816 52.0838 36.1752C51.261 34.9765 50.3975 34.4584 49.0768 34.367C47.1365 34.2349 45.887 35.2508 45.8971 36.9473C45.8971 37.4451 45.9683 37.7397 46.1714 38.146C46.5981 39.0298 47.3905 39.5581 49.8794 40.6349C54.461 42.6057 56.4216 43.906 57.6406 45.7549C59.0019 47.8171 59.3067 51.1086 58.3822 53.5568C57.3664 56.2184 54.847 58.0267 51.3016 58.626C50.2044 58.819 47.6038 58.7886 46.4254 58.5752C43.8552 58.1181 41.4171 56.8483 39.9137 55.1822C39.3244 54.5321 38.1765 52.8356 38.2476 52.7137C38.2781 52.673 38.5422 52.5105 38.8368 52.3378C39.1213 52.1752 40.1981 51.5556 41.214 50.9663L43.0527 49.8997L43.4387 50.4686C43.9771 51.2914 45.1556 52.419 45.8667 52.7949C47.9086 53.8717 50.7124 53.7194 52.094 52.48C52.6832 51.9416 52.927 51.3829 52.927 50.56C52.927 49.8184 52.8356 49.4933 52.4495 48.9346C51.9517 48.2235 50.9359 47.6241 48.0508 46.3746C44.7492 44.9524 43.327 44.0686 42.0267 42.6667C41.2749 41.854 40.5638 40.5536 40.2692 39.4667C40.0254 38.5625 39.9644 36.2971 40.1575 35.3829C40.8381 32.193 43.2457 29.9683 46.72 29.3079C47.8476 29.0946 50.4686 29.1759 51.5759 29.4502ZM36.5511 32.1219L36.5714 34.7429H32.4064H28.2413V46.5778V58.4127H25.2952H22.3492V46.5778V34.7429H18.1841H14.019V32.1727C14.019 30.7505 14.0495 29.5619 14.0902 29.5314C14.1206 29.4908 19.1898 29.4705 25.3359 29.4806L36.5206 29.5111L36.5511 32.1219Z" fill="#007ACC"/>
</svg>
