<svg width="178" height="144" viewBox="0 0 178 144" fill="none" xmlns="http://www.w3.org/2000/svg">
  <path d="M9.54291 134.417C21.6219 127.443 35.3238 123.771 49.2715 123.771C63.2191 123.771 76.921 127.443 89 134.417C101.079 127.443 114.781 123.771 128.729 123.771C142.676 123.771 156.378 127.443 168.457 134.417" stroke="white" stroke-width="17.6571" stroke-linecap="round" stroke-linejoin="round"/>
  <path d="M9.54291 19.6452C21.6219 12.6714 35.3238 9 49.2715 9C63.2191 9 76.921 12.6714 89 19.6452C101.079 12.6714 114.781 9 128.729 9C142.676 9 156.378 12.6714 168.457 19.6452" stroke="white" stroke-width="17.6571" stroke-linecap="round" stroke-linejoin="round"/>
  <path d="M9.54291 19.6453V134.417" stroke="white" stroke-width="17.6571" stroke-linecap="round" stroke-linejoin="round"/>
  <path d="M89 19.6453V134.417" stroke="white" stroke-width="17.6571" stroke-linecap="round" stroke-linejoin="round"/>
  <path d="M168.457 19.6453V134.417" stroke="white" stroke-width="17.6571" stroke-linecap="round" stroke-linejoin="round"/>
</svg>
