<svg width="41" height="34" viewBox="0 0 41 34" fill="none" xmlns="http://www.w3.org/2000/svg">
<path d="M27.5563 2.88046C23.3542 -0.0606396 17.8697 -0.677714 12.9941 0.702174C7.81571 2.15469 3.97386 5.70896 1.73611 10.5554C-0.501635 15.4018 -0.892059 20.7834 2.45993 25.1834C5.66278 29.3786 10.6808 31.2903 15.7719 31.9775C21.2354 32.7174 27.5743 32.9699 32.0849 29.3079C33.4633 28.2 31.5102 26.2747 30.1503 27.3714C26.8305 30.0595 21.9826 29.8183 17.9731 29.4829C13.5731 29.1154 8.95287 27.9963 5.72712 24.7915C2.50136 21.5867 2.05099 17.3208 3.60196 13.128C5.15293 8.9352 8.05455 5.39896 12.3268 3.79535C16.8988 2.08157 22.1308 2.40279 26.1764 5.24299C27.6216 6.25633 28.9888 3.88503 27.5548 2.88094L27.5563 2.88046Z" fill="white"/>
<path d="M15.0832 9.6634C16.9 11.7497 18.1502 14.268 18.7135 16.9766C19.2768 19.6851 19.1345 22.493 18.3001 25.1307C17.7693 26.8123 20.4092 27.5342 20.9376 25.8589C21.8917 22.7542 22.0317 19.4562 21.3441 16.2818C20.6565 13.1073 19.1643 10.1629 17.0109 7.73127C15.846 6.41474 13.9182 8.3537 15.0832 9.6634Z" fill="white"/>
<path d="M21.3119 19.9217C26.0117 12.9885 32.5301 7.48362 40.1522 4.01078C41.7607 3.27965 40.3613 0.920529 38.7737 1.64874C30.7413 5.35382 23.8832 11.1976 18.9503 18.5403C17.9648 20.0026 20.3288 21.3756 21.3124 19.9187L21.3119 19.9217Z" fill="white"/>
<path d="M27.1931 11.6857C31.0304 18.3109 33.7684 25.5143 35.3003 33.0157C35.6542 34.7387 38.2873 34.0105 37.9378 32.2875C36.3468 24.5558 33.5157 17.1324 29.5541 10.3048C28.6719 8.78163 26.3079 10.1586 27.1921 11.6833L27.1931 11.6857Z" fill="white"/>
</svg>
