<svg xmlns="http://www.w3.org/2000/svg" width="87.045" height="87.069" viewBox="0 0 87.045 87.069">
  <path id="codepen" d="M92.877,34.7,52.251,7.616a2.9,2.9,0,0,0-3.216,0L8.4,34.7a2.894,2.894,0,0,0-1.288,2.416V64.206A2.928,2.928,0,0,0,8.4,66.623L49.026,93.71a2.89,2.89,0,0,0,3.216,0L92.868,66.623a2.894,2.894,0,0,0,1.288-2.416V37.119A2.844,2.844,0,0,0,92.877,34.7ZM50.643,60.715,35.558,50.658,50.643,40.6,65.719,50.658Zm2.9-25.15V15.451l32.5,21.668L70.952,47.176,53.539,35.565Zm-5.8,0L30.325,47.176,15.24,37.119l32.5-21.668ZM25.093,50.658l-12.18,8.12V42.539Zm5.233,3.491L47.738,65.761V85.874L15.24,64.206Zm23.214,11.6L70.952,54.141,86.036,64.2l-32.5,21.668ZM76.184,50.658l12.18-8.12v16.24Z" transform="translate(-7.112 -7.129)" fill="#fff"/>
</svg>