<svg xmlns="http://www.w3.org/2000/svg" width="72.676" height="70.883" viewBox="0 0 72.676 70.883">
  <path id="github" d="M172.655,107.44a36.343,36.343,0,0,0-11.484,70.82c1.818.332,2.481-.787,2.481-1.751,0-.863-.031-3.148-.049-6.181-10.108,2.2-12.24-4.87-12.24-4.87-1.653-4.2-4.036-5.316-4.036-5.316-3.3-2.255.25-2.208.25-2.208,3.647.257,5.566,3.743,5.566,3.743,3.241,5.555,8.506,3.951,10.576,3.02a7.768,7.768,0,0,1,2.307-4.859c-8.069-.917-16.552-4.033-16.552-17.96a14.048,14.048,0,0,1,3.741-9.751,13.055,13.055,0,0,1,.357-9.617s3.049-.977,9.992,3.725a34.461,34.461,0,0,1,18.194,0c6.938-4.7,9.983-3.725,9.983-3.725a13.058,13.058,0,0,1,.364,9.617,14.024,14.024,0,0,1,3.734,9.751c0,13.96-8.5,17.032-16.593,17.931,1.305,1.122,2.467,3.342,2.467,6.73,0,4.859-.045,8.778-.045,9.969,0,.97.656,2.1,2.5,1.747a36.344,36.344,0,0,0-11.511-70.816Z" transform="translate(-136.32 -107.44)" fill="#fff" fill-rule="evenodd"/>
</svg>